<svg version="1.1" id="Layer_1" xmlns="http://www.w3.org/2000/svg" xmlns:xlink="http://www.w3.org/1999/xlink" x="0px" y="0px"
	 width="100%" viewBox="0 0 986 592" enable-background="new 0 0 986 592" xml:space="preserve">
<path fill="#000000" opacity="1.000000" stroke="none" 
	d="
M647.000000,593.000000 
	C432.833344,593.000000 219.166672,592.988586 5.500046,593.093567 
	C1.750776,593.095398 0.904319,592.249268 0.906369,588.499939 
	C1.012601,394.166656 1.012601,199.833328 0.906369,5.500051 
	C0.904319,1.750740 1.750894,0.905724 5.500029,0.906883 
	C331.166656,1.007536 656.833313,1.007536 982.500000,0.906883 
	C986.249084,0.905725 987.095703,1.750740 987.093689,5.500051 
	C986.987427,199.833328 986.987427,394.166656 987.093689,588.499939 
	C987.095703,592.249268 986.249573,593.098450 982.499878,593.094543 
	C870.833313,592.978149 759.166687,593.000000 647.000000,593.000000 
z"/>
<path fill="#895E29" opacity="1.000000" stroke="none" 
	d="
M839.141357,287.000000 
	C839.180420,275.174133 839.337158,263.846771 839.193542,252.523224 
	C839.146118,248.781494 840.087646,247.167938 844.196350,247.175613 
	C861.344238,247.207687 858.708008,245.765808 858.787170,261.267059 
	C858.929260,289.082306 858.828735,316.898804 858.820618,344.714783 
	C858.818604,351.469147 858.469482,351.839630 851.755249,351.815216 
	C836.672424,351.760437 839.300781,352.898987 839.199707,339.467773 
	C839.069275,322.146027 839.151428,304.822662 839.141357,287.000000 
z"/>
<path fill="#E8DB8E" opacity="1.000000" stroke="none" 
	d="
M434.962524,348.578094 
	C434.513611,347.826752 434.425842,347.616547 434.215729,347.087280 
	C431.077271,342.509338 429.867554,338.292999 430.462372,332.614014 
	C431.236572,325.222076 433.039276,318.105316 434.239258,310.460052 
	C434.325348,290.390167 434.311432,270.690552 434.384186,250.534973 
	C435.356659,248.347748 436.905548,248.004272 438.667206,248.008240 
	C441.659058,248.014984 444.653076,248.070099 447.642456,247.996140 
	C450.857086,247.916595 452.226074,249.425613 451.992737,252.555588 
	C451.968109,252.885986 451.995361,253.220184 451.996521,253.552628 
	C452.105103,284.290833 452.716949,315.025513 452.599701,345.766693 
	C452.584412,349.777191 451.286774,351.209930 447.527496,351.000153 
	C444.056610,350.806488 440.542358,351.425201 436.715942,350.156921 
	C435.986816,349.624603 435.655243,349.371918 434.962524,348.578094 
z"/>
<path fill="#DAC981" opacity="1.000000" stroke="none" 
	d="
M595.661377,292.521667 
	C595.558655,293.665009 595.586243,294.492706 595.486450,295.716492 
	C595.701599,297.895874 594.568481,299.628937 595.270752,301.744629 
	C595.444092,302.551819 595.525208,303.035797 595.512939,303.879761 
	C596.210205,306.915100 596.335144,309.734955 597.297546,312.730011 
	C598.175903,314.562561 598.947327,316.061279 599.810913,317.914642 
	C600.665222,318.845306 600.876831,319.775940 601.533691,320.823914 
	C601.707214,321.116302 601.910889,321.103760 601.911743,321.205780 
	C602.086975,321.349915 602.261292,321.392059 602.458252,321.702362 
	C602.873962,322.512024 603.267029,323.053558 603.792725,323.903961 
	C606.449280,327.570770 606.597717,331.883240 608.493713,335.540009 
	C609.718140,337.901581 607.169861,339.189575 605.439880,340.368408 
	C606.964111,341.991180 608.905640,342.467194 609.910706,344.070526 
	C610.457092,344.942200 610.835999,345.881958 610.127197,346.824738 
	C609.381836,347.816071 608.430115,347.556763 607.462036,347.143127 
	C605.490601,346.300873 603.745911,344.977386 601.384399,344.184021 
	C600.939026,343.894928 600.754944,343.833740 600.311462,343.640442 
	C599.286865,343.130524 598.482910,342.831207 597.578613,342.108826 
	C597.401123,341.842072 597.115051,341.838715 597.098755,341.696594 
	C596.883728,341.532440 596.684875,341.510406 596.362915,341.214752 
	C596.026672,340.870331 595.813538,340.799469 595.033447,340.383728 
	C594.202393,339.665344 593.938232,339.291901 593.373840,338.742920 
	C592.872498,338.536224 592.671448,338.505096 592.387634,338.180237 
	C591.645874,337.369385 590.986938,336.852295 590.214233,336.035950 
	C589.346313,334.554291 588.875977,333.149536 587.326294,332.193542 
	C586.859131,331.725037 586.583679,331.503296 586.207214,331.031464 
	C584.660278,329.663544 585.105957,327.464386 583.367310,326.153076 
	C583.141602,325.921295 583.061462,325.938385 583.073486,325.899231 
	C582.520020,325.552521 582.522339,324.962585 582.259277,324.195160 
	C582.137512,323.946289 582.061340,323.953064 582.066772,323.915192 
	C581.529846,323.555328 581.520081,322.982117 581.317017,322.199158 
	C580.929382,321.463440 580.627991,320.987915 580.323242,320.204712 
	C580.009277,318.818878 579.548157,317.780396 579.372192,316.317871 
	C575.097229,306.426422 575.651794,296.644928 577.920837,286.773102 
	C579.428589,280.213837 582.217590,274.270294 586.071167,268.755951 
	C586.951599,267.496185 588.029602,266.585938 589.292480,265.288727 
	C589.507690,264.803711 589.532715,264.624329 589.825928,264.401611 
	C590.094116,264.358307 590.095520,264.130219 590.209595,264.130188 
	C590.878418,263.138763 591.627014,262.323853 592.845703,261.502930 
	C593.132751,261.330170 593.105591,261.140533 593.201172,261.134521 
	C594.078064,260.159149 595.163757,259.743561 596.328552,259.842865 
	C597.582825,259.949829 597.114014,259.342377 597.012451,258.469360 
	C597.100525,258.163208 597.091797,258.078003 597.134399,258.082062 
	C598.152893,257.153656 599.219788,256.351074 600.758179,255.644806 
	C601.232056,255.407867 601.402893,255.314880 601.852905,255.136887 
	C602.756775,254.211670 604.113586,254.633636 604.867432,253.421585 
	C605.106323,253.239197 605.103638,253.099838 605.172974,253.106781 
	C611.173523,250.080582 611.704712,250.418793 611.457947,257.072052 
	C611.433228,257.738251 611.160400,257.021423 611.439758,257.542786 
	C614.689880,263.607971 611.818298,266.469635 606.137390,267.999176 
	C604.877625,268.338348 604.927246,269.244812 605.431335,270.324677 
	C606.150818,271.865875 605.574829,273.196014 604.176392,274.559937 
	C603.902832,274.778412 603.910706,274.930695 603.834473,274.928467 
	C603.667175,275.122162 603.576111,275.318085 603.217285,275.696533 
	C602.949524,275.879089 602.965210,275.952209 602.927856,275.949982 
	C601.787109,277.231903 601.139099,278.782349 600.102051,280.426514 
	C599.835632,280.591858 599.837708,280.865112 599.704407,280.895203 
	C599.530457,281.141876 599.489807,281.358490 599.296509,281.868408 
	C599.143860,282.161682 599.081604,282.023834 599.132080,282.080139 
	C596.675903,285.029480 596.396240,288.672424 595.661377,292.521667 
z"/>
<path fill="#9E7A40" opacity="1.000000" stroke="none" 
	d="
M782.965698,349.780090 
	C778.491272,353.216400 773.465759,352.169586 768.240601,350.323914 
	C761.728455,342.429749 765.445557,333.879181 766.135559,325.868805 
	C766.781128,318.374695 767.064819,311.035065 765.618958,303.328369 
	C765.357849,300.961151 765.292725,298.902283 765.326538,296.411591 
	C765.918762,295.230988 766.248413,294.459778 765.588867,293.297668 
	C765.356445,291.614960 765.289795,290.210358 765.320374,288.393036 
	C766.406494,286.723145 766.559814,285.255737 766.497925,283.729614 
	C766.114014,274.270233 767.330139,264.771698 765.768066,255.338760 
	C765.343140,252.772766 766.246094,250.463150 768.571838,249.462067 
	C772.505981,247.768677 776.776611,248.048080 780.783325,249.130600 
	C783.324890,249.817291 782.969177,252.574783 782.978760,254.703644 
	C783.023682,264.688599 782.986938,274.673798 782.992981,284.658905 
	C783.004578,303.963654 782.973145,323.268463 783.026123,342.573090 
	C783.032532,344.907318 782.681458,347.198090 782.965698,349.780090 
z"/>
<path fill="#8F6833" opacity="1.000000" stroke="none" 
	d="
M195.879059,302.003540 
	C195.876556,316.992706 195.749481,331.484436 195.949493,345.971649 
	C196.007706,350.188263 194.945892,351.872406 190.373581,351.786499 
	C175.789917,351.512543 176.193359,353.242310 176.302704,337.749664 
	C176.421417,320.929626 176.394135,304.106781 176.207809,287.287628 
	C176.160583,283.023773 177.641251,281.079773 181.943497,281.226593 
	C185.603531,281.351532 189.272461,281.338013 192.934189,281.249878 
	C195.703552,281.183258 197.192734,282.286316 196.523361,285.112793 
	C195.235168,290.552429 196.210556,296.047516 195.879059,302.003540 
z"/>
<path fill="#C4B06D" opacity="1.000000" stroke="none" 
	d="
M378.047791,290.953278 
	C381.549042,294.981964 381.824738,299.429230 381.761292,304.173370 
	C381.576385,317.994537 381.542694,331.822357 381.777252,345.641998 
	C381.858765,350.444672 380.220825,351.901245 375.438141,351.800751 
	C362.256897,351.523773 362.264709,351.723602 362.272339,338.330811 
	C362.281921,321.508240 362.209503,304.685333 362.307434,287.863342 
	C362.332611,283.535065 360.726837,279.376892 361.297852,275.012421 
	C361.484222,273.587799 360.933167,271.981445 362.918365,271.373657 
	C364.941254,270.754333 364.955200,272.723480 365.595734,273.594604 
	C369.741791,279.233093 373.739105,284.980957 378.047791,290.953278 
z"/>
<path fill="#B39759" opacity="1.000000" stroke="none" 
	d="
M712.594910,318.000183 
	C712.591064,327.999115 712.482605,337.499512 712.624084,346.996216 
	C712.673767,350.335205 711.764832,351.632141 708.129272,351.675354 
	C693.278320,351.851959 693.301270,351.978546 693.302063,336.978973 
	C693.303101,316.482178 693.251221,295.985382 693.284912,275.488678 
	C693.287170,274.125183 692.428040,272.113220 694.064758,271.485687 
	C696.267151,270.641266 696.470154,273.143616 697.434448,274.328125 
	C702.290710,280.293457 705.476929,287.458252 710.915344,293.014862 
	C712.505005,294.639099 712.751587,296.770935 712.712585,299.005219 
	C712.605103,305.169067 712.621277,311.335083 712.594910,318.000183 
z"/>
<path fill="#C8B876" opacity="1.000000" stroke="none" 
	d="
M433.988953,310.228638 
	C434.481506,313.611145 438.015137,317.428497 433.216248,320.587769 
	C432.556641,321.022003 432.941254,323.117126 432.927673,324.444183 
	C432.885162,328.592346 432.924561,332.667603 431.646759,336.775574 
	C430.643158,340.002136 433.492767,342.844757 434.062988,346.393982 
	C428.462494,341.325531 424.802856,334.432220 420.342865,328.125000 
	C409.193573,312.357941 397.969757,296.643616 386.816559,280.879303 
	C381.344818,273.145325 375.963562,265.347351 370.499695,257.245300 
	C373.161194,255.579514 374.396881,257.624207 375.738464,259.269165 
	C382.679352,267.779633 388.629211,277.007812 394.991577,285.937408 
	C395.552155,286.724152 395.862518,287.765198 397.035980,287.910706 
	C401.989258,281.490082 402.291077,280.943756 397.580261,275.140656 
	C392.509521,268.894226 389.162811,261.572540 384.303711,255.231186 
	C381.951233,252.161102 376.125458,250.561462 372.670563,251.846008 
	C370.503448,252.651749 371.615570,254.815063 370.350464,256.285583 
	C368.296112,253.913483 363.917847,251.676758 365.281158,248.697754 
	C366.534912,245.958206 371.097839,248.208710 374.079437,247.526733 
	C385.783813,244.849625 388.603973,254.786880 393.604248,261.348053 
	C400.061340,269.820648 406.122345,278.595886 412.321960,287.263672 
	C417.999939,295.202179 423.693817,303.130890 429.230591,311.167328 
	C430.124115,312.464233 431.022430,313.907227 432.445007,313.700867 
	C434.076843,313.464203 432.726501,311.341522 433.988953,310.228638 
z"/>
<path fill="#DACE87" opacity="1.000000" stroke="none" 
	d="
M544.567627,266.196289 
	C548.720886,267.996796 550.319519,271.801086 551.920105,275.099152 
	C561.056213,293.924866 559.931885,312.405548 548.558411,329.965302 
	C546.346436,333.380463 543.707153,336.933746 539.282898,338.706055 
	C538.863464,335.612579 538.773987,332.619263 537.240479,329.748901 
	C536.201599,327.804321 537.098633,325.600739 537.388245,323.458649 
	C537.767639,320.652679 539.244202,317.191895 534.929321,315.246155 
	C534.814209,312.348358 535.344055,309.750244 537.023560,307.248779 
	C539.357849,307.163422 537.627258,305.993805 537.781738,305.177063 
	C537.237183,298.070435 537.628967,291.146210 534.773926,284.327301 
	C537.514343,285.940369 537.733582,286.425659 538.506714,292.252747 
	C538.488281,289.786469 537.769836,287.623138 536.882751,285.486176 
	C536.249939,283.961914 535.473022,282.369659 536.294678,280.709137 
	C538.389282,276.476257 536.595642,273.106049 534.146851,269.751862 
	C532.475037,267.461914 529.390808,264.928162 532.626709,262.091949 
	C535.873962,259.245758 538.460266,262.048828 540.585632,264.406555 
	C541.638062,265.574066 542.432678,266.742310 544.567627,266.196289 
z"/>
<path fill="#F1E89B" opacity="1.000000" stroke="none" 
	d="
M544.823975,265.936646 
	C543.002869,268.435669 541.316406,269.020294 539.664124,265.833313 
	C539.087463,264.721130 537.855713,263.947205 536.918152,263.023895 
	C535.726562,261.850494 534.494568,262.177734 533.325073,263.014923 
	C531.539795,264.292969 533.276367,265.232605 533.643494,266.357666 
	C534.483887,268.933105 537.616333,269.645538 538.174744,272.672760 
	C538.751587,275.799805 540.871338,278.670929 537.530640,281.574402 
	C536.525635,282.447845 537.072205,284.141449 537.755127,285.326874 
	C539.747192,288.784546 538.663818,292.578522 539.020020,296.254272 
	C538.001282,292.165619 537.587158,287.929657 535.098511,284.098511 
	C534.604736,283.505219 534.409790,283.048157 534.129089,282.224365 
	C533.868958,281.747498 533.694458,281.637268 533.479614,281.220093 
	C533.439392,280.913116 533.145508,280.872742 533.133789,280.724915 
	C532.085510,279.719513 531.578735,278.465332 530.630859,277.138123 
	C530.490479,276.839935 530.146118,276.785126 530.111511,276.614258 
	C529.887146,276.463348 529.697327,276.483307 529.591919,276.229706 
	C529.522827,275.891022 529.369385,275.825836 528.962280,275.383850 
	C527.937256,274.382568 527.165833,273.758148 526.274109,272.774841 
	C525.551392,272.213013 525.016174,271.904724 524.423340,271.157654 
	C524.253845,270.894379 524.075806,270.901489 524.077820,270.812408 
	C523.882385,270.645203 523.684998,270.567047 523.313599,270.222046 
	C522.585327,269.807922 522.031067,269.660583 521.129150,269.243713 
	C519.780518,268.544128 518.779419,268.114075 517.426147,267.464050 
	C515.883667,267.022339 514.758545,266.527374 513.339844,266.178192 
	C510.675323,265.567963 508.216339,265.180664 505.355957,264.677185 
	C497.680298,264.414673 490.403320,264.423370 483.131500,264.545715 
	C479.542542,264.606140 477.845154,263.201599 478.015015,259.616211 
	C478.170746,256.328888 477.553864,253.003036 478.682617,249.311325 
	C478.860382,248.867310 479.003998,248.972641 478.927521,248.927902 
	C480.361786,247.721085 482.089813,247.444901 483.953308,247.489716 
	C491.649200,247.674866 499.367676,247.044708 507.465332,248.275696 
	C508.409790,248.410400 508.926575,248.418243 509.799011,248.582352 
	C511.198395,248.331238 512.271912,248.524109 513.524780,248.844635 
	C514.271545,249.186752 514.832214,249.264893 515.767944,249.545700 
	C516.557007,249.563599 516.987915,249.507324 517.683960,249.801758 
	C518.416016,250.101807 518.899597,250.179245 519.715515,250.413818 
	C523.322388,250.952591 526.068665,252.946884 529.482910,253.854218 
	C529.707703,254.120132 529.888306,254.112183 529.885132,254.202515 
	C531.312439,255.157852 532.802185,255.910217 534.497437,256.874939 
	C534.681152,257.128876 534.878296,257.120331 534.876465,257.218994 
	C535.633850,257.766937 536.431091,258.148041 537.387085,258.867371 
	C537.940552,259.327057 538.293457,259.523651 538.775574,260.000122 
	C540.630066,261.450745 542.012329,262.983612 543.596252,264.797546 
	C544.114136,265.270294 544.422729,265.470123 544.823975,265.936646 
z"/>
<path fill="#BCA463" opacity="1.000000" stroke="none" 
	d="
M660.642944,294.307709 
	C660.133545,292.908966 659.809448,291.795227 659.465698,290.328247 
	C660.990356,286.822632 659.151733,284.152069 657.913940,281.602325 
	C656.761719,279.228729 656.441650,277.225128 658.132324,275.152832 
	C659.669067,273.269196 659.562622,271.550873 657.837463,269.883179 
	C655.757446,267.872375 652.475342,266.165131 655.087402,262.568787 
	C657.085571,259.817657 661.370483,260.189514 665.590210,263.301331 
	C674.336487,271.627106 678.596558,281.787445 679.760864,293.281799 
	C680.565247,301.222198 679.323181,309.059296 677.716980,316.830444 
	C676.735657,321.578400 673.095642,325.035614 671.243530,329.535187 
	C670.065674,328.461548 670.742615,327.338135 670.823120,326.229370 
	C670.708069,326.885773 670.756409,325.889801 670.742432,326.067444 
	C670.523987,328.832062 670.085083,331.549408 666.696655,331.841949 
	C663.862793,332.086609 662.815979,329.751526 661.988708,327.531586 
	C660.476013,323.471924 659.814392,319.264038 659.952393,314.927734 
	C659.973450,314.267487 659.657043,313.889740 659.694885,314.548584 
	C659.707947,314.777496 659.265381,314.956207 658.624146,315.023376 
	C657.787903,311.670715 659.436768,308.799377 660.350708,305.364655 
	C664.466553,300.911469 664.466553,300.911469 660.642944,294.307709 
z"/>
<path fill="#F4EC9C" opacity="1.000000" stroke="none" 
	d="
M502.707123,334.394775 
	C510.322723,334.078003 516.825500,331.063629 523.759827,328.163635 
	C524.984619,327.094757 525.844360,326.137878 527.667847,326.509796 
	C528.854797,330.177795 529.069946,333.883850 529.478210,337.400940 
	C529.825439,340.391754 526.012512,343.274445 524.717896,346.948730 
	C518.686279,349.707550 512.588135,350.611664 506.482452,350.901489 
	C498.690186,351.271362 490.868774,350.941437 483.061218,351.018005 
	C479.724823,351.050690 477.804657,349.508423 478.112885,346.302216 
	C478.486389,342.416565 476.093628,337.980652 480.549622,334.590820 
	C487.025146,334.378906 493.059296,334.295624 499.557312,334.289368 
	C500.813660,334.527985 501.613098,334.514984 502.707123,334.394775 
z"/>
<path fill="#7A5929" opacity="1.000000" stroke="none" 
	d="
M185.256821,264.993988 
	C172.819656,266.451324 160.494492,265.556702 148.183319,265.787994 
	C147.694077,265.797180 147.062637,265.807648 146.731644,265.534119 
	C141.799057,261.457825 144.801590,255.924240 144.332443,251.082748 
	C143.991318,247.562454 147.077271,247.175217 149.983154,247.181122 
	C165.315720,247.212326 180.648407,247.175034 195.981064,247.162445 
	C205.147186,247.154907 214.314026,247.077164 223.479141,247.170059 
	C228.785614,247.223846 230.277954,249.271973 228.940872,254.716858 
	C225.157410,250.795120 220.632355,250.845856 215.965378,250.994843 
	C204.711456,251.354156 193.474426,250.042633 181.829086,250.594620 
	C178.538513,250.968323 175.714417,251.299438 175.859192,255.339020 
	C175.991669,259.035278 177.097549,261.832916 181.325333,262.248169 
	C182.310898,262.344940 183.287292,262.544952 184.504578,263.166382 
	C185.172272,263.715851 185.357666,264.149811 185.256821,264.993988 
z"/>
<path fill="#C4B06D" opacity="1.000000" stroke="none" 
	d="
M658.203674,315.019501 
	C660.184082,314.191010 659.527039,311.715118 661.528809,310.127655 
	C661.175232,316.610443 661.752625,322.383087 663.830505,327.937653 
	C664.531250,329.810883 665.316284,331.624115 667.680115,330.399811 
	C669.615723,329.397308 670.714478,327.658081 669.257629,325.452087 
	C668.576538,324.420776 666.859192,323.915558 667.684875,322.217712 
	C667.994507,321.580902 668.941284,321.171600 669.333191,321.667450 
	C670.239746,322.814545 671.134094,324.119202 671.494751,325.500610 
	C671.757996,326.509094 671.162720,327.741669 670.928040,329.211060 
	C669.877869,330.833862 668.849854,332.119965 667.667236,333.728394 
	C667.489075,334.216766 667.465637,334.382843 667.190979,334.535980 
	C666.939758,334.523071 666.801025,334.872803 666.617798,334.915497 
	C666.455139,335.139618 666.475586,335.321075 666.223389,335.529541 
	C665.373535,336.266815 664.796265,336.977020 663.881531,337.783264 
	C663.372925,338.434875 662.883728,338.683228 662.219666,339.106262 
	C661.800232,339.368561 661.624512,339.522736 661.127563,339.817291 
	C660.705505,340.136902 660.604797,340.316101 660.217529,340.609314 
	C659.931091,340.723358 659.932556,340.935303 659.826599,340.934326 
	C659.650208,341.118591 659.579834,341.303802 659.219482,341.553772 
	C658.929382,341.618561 658.904907,341.868011 658.779541,341.867249 
	C658.176453,342.669647 657.291321,342.845947 656.257446,343.378448 
	C651.220642,347.812561 645.462952,349.735474 639.275574,350.711639 
	C636.407043,351.164185 634.782043,350.477966 635.290405,347.160309 
	C635.946716,342.876465 634.101868,338.401886 636.636230,334.090576 
	C637.437744,333.526947 638.013306,333.518005 638.783813,333.249176 
	C639.024963,333.112335 639.038330,333.034760 639.076416,333.044800 
	C639.452026,332.524963 640.027405,332.519165 640.816284,332.324585 
	C641.080261,332.246979 641.119019,332.105865 641.192017,332.111206 
	C641.325073,331.927887 641.385132,331.739227 641.742065,331.540405 
	C642.248413,331.453400 642.458008,331.376465 642.988159,331.203033 
	C643.356812,330.917389 643.404785,330.728180 643.745239,330.524414 
	C644.226074,330.437012 644.414429,330.364136 644.888977,330.191711 
	C645.444397,329.484070 646.050598,329.528656 646.802734,329.254578 
	C647.049011,329.130066 647.044312,329.051331 647.083740,329.053406 
	C647.247986,328.871704 647.372864,328.687988 647.774292,328.318146 
	C648.050720,328.132050 648.046631,328.045685 648.089844,328.047668 
	C648.254395,327.867981 648.375732,327.686340 648.771790,327.326111 
	C649.269775,326.868164 649.493042,326.588837 649.963623,326.196655 
	C650.308044,325.889069 650.405090,325.694336 650.809814,325.390869 
	C651.117493,325.282104 651.134521,325.126373 651.212646,325.120178 
	C651.343750,324.926880 651.396851,324.739746 651.731201,324.474915 
	C652.788452,323.388916 653.564514,322.380585 654.666199,321.039673 
	C655.393799,320.006989 655.795776,319.306854 656.408203,318.257629 
	C656.618713,317.908508 656.583862,317.412018 656.829834,317.374023 
	C657.075745,317.336060 657.079224,317.085480 657.202698,317.064026 
	C657.415222,316.598969 657.501587,316.154846 657.848145,315.496063 
	C658.111694,315.282043 658.087097,315.044769 658.203674,315.019501 
z"/>
<path fill="#A48849" opacity="1.000000" stroke="none" 
	d="
M335.079834,346.106873 
	C336.724640,350.415344 335.218262,351.972321 330.597443,351.932281 
	C308.166565,351.738007 285.732788,351.742584 263.301208,351.873352 
	C258.990631,351.898468 257.265686,350.081909 257.223175,346.060913 
	C257.067719,331.351837 256.970245,334.348419 268.172150,334.160431 
	C274.152985,334.060059 280.136932,334.144897 286.580383,334.248596 
	C288.865143,337.547607 287.491547,341.113617 288.183441,344.494110 
	C288.733551,347.181519 289.792847,348.064911 292.368439,348.115204 
	C297.478088,348.214966 302.597351,347.790100 308.092590,348.390350 
	C314.702362,347.616516 320.947449,348.079926 327.177948,348.031433 
	C329.872223,348.010437 332.403320,347.725739 335.079834,346.106873 
z"/>
<path fill="#B39759" opacity="1.000000" stroke="none" 
	d="
M706.507874,248.120819 
	C709.809387,248.304230 712.707092,247.759354 715.713135,248.952759 
	C716.672607,249.868973 716.881836,250.800217 717.561157,251.818893 
	C717.739868,252.104599 717.922607,252.095718 717.923706,252.187164 
	C718.095093,252.330566 718.265259,252.382507 718.478394,252.697876 
	C718.604919,253.152695 718.688599,253.344086 718.871399,253.832764 
	C719.143311,254.249435 719.316162,254.368851 719.634949,254.767593 
	C720.084717,255.292496 720.388489,255.538055 720.786255,256.067535 
	C721.675110,256.876648 721.882874,257.805298 722.557495,258.819733 
	C722.734436,259.104797 722.900452,259.117950 722.886841,259.200134 
	C723.894409,260.215149 724.382263,261.548737 725.506104,262.830719 
	C725.689209,263.119507 725.882812,263.135681 725.870361,263.231995 
	C726.674561,263.847626 726.875122,264.798370 727.583801,265.808075 
	C727.771606,266.091309 727.911560,266.087616 727.905945,266.157410 
	C728.656921,266.816681 728.869324,267.759521 729.572388,268.792877 
	C730.074402,269.310242 730.385193,269.542572 730.787354,270.059052 
	C731.519043,270.832581 731.707886,271.489441 731.432251,272.583038 
	C730.218628,274.165527 728.632935,273.331665 727.222900,273.585083 
	C728.108154,275.632050 729.962097,276.149261 731.378174,277.648590 
	C732.427979,279.240356 732.657166,280.705475 732.417297,282.201538 
	C731.966675,285.012421 730.548462,286.758545 727.747009,284.777863 
	C725.713318,283.339996 726.308594,284.036957 726.578247,285.588409 
	C726.901184,287.446594 726.437012,288.973541 723.704895,288.195770 
	C722.754700,287.104218 722.053650,286.249634 721.209717,285.095947 
	C720.221436,284.206665 720.128662,283.107574 719.265930,282.176941 
	C719.082214,281.949005 719.012695,281.988098 719.030518,281.952393 
	C718.877869,281.791504 718.707520,281.666321 718.437805,281.239990 
	C717.667175,280.101837 716.995972,279.264832 716.183960,278.137085 
	C715.873779,277.745728 715.704346,277.645081 715.460693,277.258270 
	C711.397217,271.123718 706.634216,265.818146 703.107300,259.240417 
	C702.853516,258.765869 702.682007,258.638672 702.364258,258.226562 
	C702.218018,257.941681 702.050598,257.935486 702.054688,257.851837 
	C701.880737,257.687897 701.702759,257.607635 701.508667,257.234955 
	C701.492554,256.942566 701.221436,256.843109 701.192749,256.701538 
	C700.310059,256.112366 700.122925,255.181976 699.479614,254.176025 
	C699.313904,253.890244 699.098511,253.866531 699.080078,253.759766 
	C698.879761,253.607208 698.697876,253.561417 698.526123,253.234497 
	C698.536194,252.953400 698.198608,252.779663 697.993408,252.457489 
	C697.651245,251.919373 697.514282,251.703430 697.228516,251.133911 
	C696.036377,248.572083 697.601074,248.202026 699.134155,248.079666 
	C701.438782,247.895660 703.759460,247.964172 706.507874,248.120819 
z"/>
<path fill="#A7884C" opacity="1.000000" stroke="none" 
	d="
M723.464966,288.257263 
	C727.000000,287.778687 725.425720,285.867035 724.603455,284.362213 
	C723.766785,282.831055 721.936584,281.125031 724.260010,279.809692 
	C726.198303,278.712372 726.285828,281.259094 727.128479,282.248505 
	C727.946533,283.209076 728.711914,285.053345 730.022461,284.255615 
	C731.983765,283.061859 730.681030,280.674530 731.223999,278.184845 
	C732.162231,277.101318 733.042725,277.085205 734.317017,276.386200 
	C738.446594,280.644684 742.171509,285.058014 745.552795,289.720490 
	C748.509583,293.797638 751.079956,298.154999 753.900635,302.737671 
	C754.126648,303.270599 754.273132,303.454468 754.395630,303.989868 
	C751.581299,306.627533 751.002014,302.766510 749.086304,302.377167 
	C747.295349,302.013123 746.345520,300.101898 745.153564,298.741211 
	C746.120605,302.159210 752.306274,302.134796 750.737854,307.135010 
	C750.081543,309.227570 748.151367,308.806335 746.120789,308.591339 
	C749.423340,315.771790 751.971497,323.068451 757.366760,328.909088 
	C758.849060,330.513641 760.643494,332.479919 758.665100,335.268188 
	C758.113098,335.427002 757.876770,335.425415 757.366516,335.198975 
	C752.093445,329.779510 748.386536,323.613007 744.222107,317.794617 
	C738.100281,309.241455 732.076477,300.618134 725.838989,291.620453 
	C724.206177,290.931122 724.289368,289.373077 723.464966,288.257263 
z"/>
<path fill="#A48849" opacity="1.000000" stroke="none" 
	d="
M757.788696,335.265564 
	C759.316406,331.974152 756.726562,330.444733 755.230591,328.882782 
	C750.659912,324.110535 748.540833,318.085388 745.970825,312.265106 
	C745.708191,311.670441 745.680969,310.883759 745.265015,310.461243 
	C743.979370,309.155121 742.037415,307.746155 743.587952,305.933350 
	C745.246399,303.994202 746.302185,306.367676 747.471436,307.308655 
	C748.243896,307.930359 749.104187,307.873047 749.578857,307.023132 
	C750.202820,305.905731 750.055969,304.626892 749.019409,303.880737 
	C747.426453,302.734039 745.688110,301.776215 743.957275,300.838409 
	C742.625610,300.116974 741.883240,299.156525 742.342712,297.636902 
	C742.680298,296.520538 743.170715,295.287750 744.556641,295.274719 
	C746.187012,295.259338 746.729065,296.525696 747.006958,297.920410 
	C747.726685,301.532501 751.655640,301.815552 753.789429,304.133240 
	C754.292725,303.675171 754.646667,303.505585 755.338867,303.806152 
	C755.950195,304.582367 756.330566,305.132721 756.855042,305.986450 
	C756.999146,306.289795 757.462769,306.458466 757.531860,306.695251 
	C757.663330,307.148224 757.725647,307.364410 757.883484,307.904175 
	C758.148682,308.314087 758.318237,308.400391 758.570557,308.759888 
	C758.653320,309.033051 758.901428,309.157928 758.930420,309.293762 
	C759.133850,309.447845 759.308289,309.466095 759.454956,309.745972 
	C759.427063,310.007629 759.795837,310.164978 760.135864,310.518494 
	C760.869385,311.487274 761.262817,312.102570 761.811218,313.049194 
	C762.144043,313.420929 762.321899,313.461273 762.538208,313.772461 
	C762.576660,314.043243 762.829834,314.230957 762.835693,314.388428 
	C766.686462,317.934174 763.730591,312.557281 765.208496,312.452454 
	C765.285889,309.388611 765.273438,306.651428 765.342041,303.467163 
	C769.980469,304.855896 768.483337,309.125641 768.504028,312.248383 
	C768.520752,314.788635 767.288452,317.315552 768.737793,319.893158 
	C769.034119,320.420227 769.186829,321.377930 768.907288,321.825806 
	C765.386108,327.464905 769.311157,334.306641 765.815430,340.057831 
	C764.556030,342.129791 767.105347,344.240173 767.654968,346.422882 
	C767.908264,347.429230 769.255798,348.150787 768.279663,349.734253 
	C767.778748,349.780609 767.497681,349.584991 767.113403,349.149109 
	C766.396545,348.595703 765.867554,348.182587 765.369263,347.286011 
	C764.929688,346.734924 764.595520,346.506561 764.131714,345.996582 
	C764.002014,345.714996 763.541138,345.546661 763.477661,345.309662 
	C763.353210,344.840149 763.292175,344.607666 763.138916,344.026642 
	C762.864502,343.618134 762.682251,343.558136 762.438110,343.217163 
	C762.376160,342.936127 762.138550,342.903381 762.099365,342.790039 
	C761.895630,342.638916 761.730957,342.601196 761.512817,342.315826 
	C761.072876,341.482971 760.686462,340.897736 760.176392,339.983276 
	C759.888184,339.625702 759.723511,339.597321 759.548767,339.318542 
	C759.134583,338.506409 758.730469,337.944702 758.210571,337.056580 
	C757.682190,336.433746 757.510010,336.027527 757.788696,335.265564 
z"/>
<path fill="#9E7A40" opacity="1.000000" stroke="none" 
	d="
M185.571320,265.432800 
	C185.111603,265.038116 185.068832,264.744446 184.967804,264.233429 
	C187.274200,261.337250 190.471039,262.210297 193.339767,262.124664 
	C199.007736,261.955566 196.744034,257.312744 197.418671,254.678314 
	C198.189529,251.668106 195.220245,252.066116 193.357376,251.948151 
	C190.545166,251.770050 187.716980,251.992523 184.902634,251.804230 
	C183.092438,251.683090 181.207642,251.636292 180.072754,249.502808 
	C194.312454,249.089493 208.515930,249.212250 222.709137,248.887466 
	C226.915314,248.791214 228.395447,250.281738 228.359024,254.457108 
	C228.566254,255.939941 228.584457,257.129639 228.565918,258.758728 
	C229.187119,260.905487 229.169144,262.599243 228.191147,264.568787 
	C226.545792,266.145050 224.807861,265.618469 223.216202,265.619537 
	C210.818481,265.627838 198.420700,265.567749 185.571320,265.432800 
z"/>
<path fill="#BD9E5C" opacity="1.000000" stroke="none" 
	d="
M282.545502,290.485779 
	C283.407257,290.409332 283.869415,290.343842 284.675293,290.359924 
	C285.018951,290.441467 285.500977,290.420929 285.741974,290.431091 
	C289.044128,290.383179 292.105286,290.325104 295.618347,290.356354 
	C298.456299,290.554962 300.843414,290.492615 303.587585,290.466370 
	C305.368408,290.398499 306.791840,290.352203 308.637970,290.378967 
	C309.832245,290.489258 310.603821,290.521515 311.665344,290.458496 
	C313.700073,290.393127 315.445648,290.344269 317.621277,290.376099 
	C318.474487,290.478058 318.897888,290.487793 319.639160,290.475159 
	C322.022217,290.418945 324.087738,290.371857 326.588013,290.411987 
	C327.207397,290.522247 327.392029,290.545258 327.702515,290.817413 
	C327.828369,291.066528 327.923828,291.058228 327.921448,291.106079 
	C329.122711,296.031097 328.268311,300.979950 328.193970,306.293091 
	C324.991974,308.628052 321.688324,307.429413 318.094025,307.612793 
	C306.690674,307.477417 295.738953,307.508942 284.359711,307.489807 
	C283.662750,307.428223 283.393341,307.372314 282.918793,306.968536 
	C283.242981,304.513824 285.073700,304.548035 286.662201,304.310730 
	C288.469543,304.040771 290.310852,304.212311 292.133789,304.112762 
	C294.939941,303.959503 298.074615,304.075500 298.913239,300.556458 
	C299.364288,298.663879 294.764404,294.468079 292.133270,294.041077 
	C288.383606,293.432556 284.471680,294.502869 280.490295,292.746521 
	C279.136902,290.192535 280.968719,290.663422 282.545502,290.485779 
z"/>
<path fill="#C4B06D" opacity="1.000000" stroke="none" 
	d="
M665.801025,263.118561 
	C664.295288,265.513702 663.869507,263.018555 662.968201,262.626984 
	C660.188232,261.419159 657.073853,261.802185 655.720154,263.897614 
	C654.147644,266.331818 657.205444,267.153442 659.021667,268.237854 
	C662.076904,270.062042 662.202209,273.918701 659.281677,276.227203 
	C657.684570,277.489685 658.126526,278.666382 658.752930,280.116119 
	C659.731873,282.381836 660.608032,284.692627 661.498291,286.995697 
	C662.049622,288.422180 662.042297,289.630646 659.783569,289.942871 
	C659.377258,289.518127 659.308411,289.061310 659.236084,288.256104 
	C659.043579,287.133118 658.816345,286.370667 658.457214,285.339478 
	C657.700989,283.814056 656.996399,282.582794 656.155640,281.019897 
	C656.019409,280.688202 655.544617,280.549683 655.486755,280.309265 
	C652.056091,273.388580 646.326111,269.406219 639.657898,266.677307 
	C636.321411,265.311859 634.472229,263.454468 635.316650,259.653992 
	C635.529846,258.694672 635.448120,257.665131 635.462952,256.667267 
	C635.598389,247.545212 635.595886,247.545181 644.780884,250.490173 
	C646.521912,250.686081 647.755859,251.359924 649.295166,251.864899 
	C650.188110,252.366699 650.877563,252.595886 651.772583,253.126343 
	C652.403809,253.441574 652.824341,253.493805 653.420471,253.852554 
	C654.205688,254.481018 654.809570,254.847351 655.689453,255.438660 
	C656.784546,255.927933 657.604675,256.189728 658.578491,256.847168 
	C658.792786,257.088531 658.922729,257.080292 658.919189,257.145294 
	C660.291321,258.350006 661.796448,259.329407 663.270752,260.856201 
	C664.205261,261.682098 664.954224,262.228485 665.801025,263.118561 
z"/>
<path fill="#A7884C" opacity="1.000000" stroke="none" 
	d="
M286.072144,264.328430 
	C277.584198,264.787933 269.305878,264.878387 261.027557,264.881500 
	C260.097504,264.881836 259.041748,264.581085 258.267151,264.077301 
	C257.156982,263.355286 257.051758,252.086899 258.035431,250.113144 
	C259.786682,246.599197 262.798645,247.561218 265.785553,247.754272 
	C271.225677,248.105896 276.688782,248.102142 282.601501,248.357590 
	C285.620544,249.637054 289.801849,247.795547 290.527313,252.351761 
	C291.261414,256.962250 290.721527,261.183014 286.072144,264.328430 
z"/>
<path fill="#C3A864" opacity="1.000000" stroke="none" 
	d="
M335.571472,345.617859 
	C335.109802,349.245209 333.424103,350.244415 330.174500,350.108459 
	C323.112427,349.812927 316.030762,349.984863 308.490051,349.954071 
	C306.065308,347.603088 307.499847,344.806274 307.063873,342.239319 
	C306.516205,339.014893 305.194244,337.746277 301.876587,337.720428 
	C298.983246,337.697937 295.402710,338.920380 293.848877,334.735779 
	C307.348816,334.369232 320.662842,334.307922 334.431519,334.326782 
	C336.015594,335.180664 335.270966,336.358521 335.509125,337.641968 
	C335.550079,340.364136 335.596893,342.767487 335.571472,345.617859 
z"/>
<path fill="#C3A864" opacity="1.000000" stroke="none" 
	d="
M333.801392,264.879150 
	C325.470337,264.894928 317.705933,264.876556 309.479858,264.781311 
	C307.398438,263.210205 307.977051,261.351166 308.235901,259.590973 
	C308.830383,255.547638 308.746277,251.927032 303.711090,250.752487 
	C303.074310,250.603943 302.779938,249.868774 302.873230,248.868317 
	C308.760040,248.469086 314.470459,248.375687 320.654663,248.327560 
	C325.111664,247.665756 329.115692,248.028076 333.501434,248.247101 
	C334.993652,248.266251 335.535767,248.845428 335.780273,250.150223 
	C335.777191,253.366852 335.687286,256.312805 335.520813,259.737732 
	C336.155853,261.527283 336.122192,262.833954 335.174561,264.372375 
	C334.739777,264.686737 334.553925,264.765839 333.801392,264.879150 
z"/>
<path fill="#A48849" opacity="1.000000" stroke="none" 
	d="
M282.490295,290.376190 
	C282.079254,290.840790 281.213440,291.206787 280.154297,291.781006 
	C279.716583,296.683044 280.347046,301.206146 282.767212,305.713745 
	C282.953735,306.010986 283.082001,306.460205 283.164307,306.678802 
	C276.161896,308.178314 269.020599,307.224182 261.466431,307.230682 
	C258.332550,307.114197 257.106873,305.815460 257.197388,303.125702 
	C257.642273,289.908997 254.927277,289.948273 269.181610,290.237183 
	C273.464752,290.324036 277.750793,290.268158 282.490295,290.376190 
z"/>
<path fill="#BD9E5C" opacity="1.000000" stroke="none" 
	d="
M302.592133,248.440536 
	C303.230469,248.833572 303.352722,249.259399 303.600647,249.353241 
	C310.908783,252.120117 311.667145,253.745407 309.480957,262.038666 
	C309.314148,262.671356 309.195343,263.316711 309.036194,264.330322 
	C301.572021,264.757721 294.125916,264.811005 286.271149,264.793762 
	C285.841095,262.228088 287.938019,260.668610 288.616516,258.475739 
	C290.179810,253.423172 288.843475,251.011581 283.213928,248.784363 
	C289.418701,248.418518 295.776672,248.368546 302.592133,248.440536 
z"/>
<path fill="#C7B471" opacity="1.000000" stroke="none" 
	d="
M601.260010,344.271637 
	C604.168518,343.594452 606.607178,345.493225 610.329956,347.535156 
	C607.985779,342.488159 602.711487,342.947693 601.521606,339.070679 
	C602.593018,337.569611 603.737061,338.755737 604.778137,338.658295 
	C607.479309,338.405426 608.636292,336.799622 606.743530,334.736572 
	C604.091797,331.846252 603.865723,328.567505 603.930786,324.633423 
	C607.971497,324.515320 608.219421,330.084595 612.343262,330.294037 
	C612.474548,330.300690 612.583740,330.573181 612.724060,330.596558 
	C624.028076,332.478088 621.601685,341.174866 621.670654,348.622986 
	C621.695190,351.266937 621.053772,351.747284 618.091431,350.964447 
	C612.254456,349.422119 606.263672,348.579559 601.260010,344.271637 
z"/>
<path fill="#BD9E5C" opacity="1.000000" stroke="none" 
	d="
M293.606689,334.330322 
	C295.943542,337.381897 298.891174,335.840546 301.329407,335.920593 
	C308.192108,336.145844 310.835175,339.552490 309.025238,346.382446 
	C308.770508,347.343750 308.423584,348.280670 308.071167,349.585632 
	C302.093842,349.957672 296.164154,349.927612 290.235901,350.007172 
	C287.265625,350.047028 285.834503,349.600616 286.333984,345.790619 
	C286.791290,342.301819 284.814178,338.571198 286.960663,334.697388 
	C289.087036,334.310760 291.132812,334.270416 293.606689,334.330322 
z"/>
<path fill="#A48849" opacity="1.000000" stroke="none" 
	d="
M783.459595,349.645996 
	C782.197083,349.947662 781.054382,349.849792 778.809265,349.657471 
	C781.330505,348.148560 782.076538,346.659180 782.069031,344.460632 
	C781.967529,314.659393 781.939636,284.857361 782.079468,255.056427 
	C782.097961,251.113907 780.895386,249.498917 776.944763,249.970642 
	C775.302795,250.166702 773.614624,249.936935 771.954773,250.030106 
	C768.193787,250.241196 766.846130,251.990097 767.395996,255.944901 
	C768.775024,265.864166 767.773132,275.871063 767.935730,285.839539 
	C767.953979,286.958344 767.341125,287.707794 765.795288,287.937988 
	C765.403992,281.876068 765.390381,275.771820 765.477051,269.191986 
	C764.475830,262.847717 765.020264,256.947815 765.437561,250.678726 
	C765.351868,249.366867 765.464600,248.635864 766.920898,248.470337 
	C772.151611,247.711182 777.065308,247.690292 782.332947,248.772919 
	C784.489441,254.550293 783.308044,260.230042 783.515991,265.831055 
	C783.707336,270.984283 783.471985,276.153381 783.306641,282.036652 
	C783.371704,293.997345 783.644531,305.236359 783.711853,316.476593 
	C783.777344,327.399231 783.632141,338.323151 783.459595,349.645996 
z"/>
<path fill="#C4B06D" opacity="1.000000" stroke="none" 
	d="
M604.246887,274.736938 
	C603.484436,273.202148 606.708130,270.164093 601.851318,270.243256 
	C600.672607,270.262451 601.391113,267.801147 602.364502,267.686737 
	C605.245972,267.348053 606.976501,264.532318 609.872803,264.514038 
	C610.735229,264.508575 611.537170,264.634186 611.809082,263.563873 
	C612.031921,262.686340 611.850342,261.591583 611.067383,261.436584 
	C607.286438,260.688110 609.260681,258.747742 609.795410,256.812012 
	C610.157104,255.502701 611.344360,253.832626 610.137085,252.654251 
	C608.889404,251.436401 607.407898,253.168411 605.604614,253.113190 
	C609.049927,249.426041 614.257446,249.848221 618.867188,248.549240 
	C620.318359,248.140335 621.442200,248.969055 621.469543,250.707321 
	C621.477356,251.205688 621.436890,251.711578 621.507568,252.201202 
	C622.618774,259.904449 622.119324,266.718414 612.551208,268.576508 
	C608.876709,269.290070 607.633728,273.162506 604.246887,274.736938 
z"/>
<path fill="#F1E89B" opacity="1.000000" stroke="none" 
	d="
M525.273560,346.047852 
	C524.420776,342.806458 523.349792,339.655243 527.957642,338.643768 
	C529.055481,338.402802 529.144592,336.702576 528.313477,336.209076 
	C523.720703,333.482269 526.586060,330.568298 527.957825,327.315796 
	C529.006592,325.311249 530.923767,325.963440 532.240295,325.261414 
	C533.382874,324.652039 535.781372,323.463196 532.078247,322.178162 
	C531.368591,321.334656 531.281677,320.669830 531.901611,319.752228 
	C532.188965,319.538025 532.204285,319.176117 532.377808,319.124084 
	C532.541931,318.869812 532.532593,318.667603 532.787109,318.314880 
	C533.129883,317.956482 533.208862,317.748596 533.453125,317.250916 
	C533.596985,316.782990 533.575623,316.604889 533.813477,316.354675 
	C534.147522,316.066101 534.222229,315.849609 534.471924,315.337494 
	C536.058289,314.904663 536.549377,312.275848 538.346313,313.491211 
	C539.678650,314.392242 539.690796,315.828888 539.445129,317.459991 
	C538.995422,320.445740 539.645874,323.501221 538.277710,326.486145 
	C537.536865,328.102386 538.429077,330.508179 539.619141,331.504608 
	C542.863647,334.221344 541.494873,336.052704 539.003540,338.357330 
	C538.927917,338.680145 538.899109,338.924072 538.776672,338.914337 
	C538.611816,339.093964 538.569336,339.283356 538.238831,339.430878 
	C537.670654,339.802521 537.390503,340.216034 536.736450,340.722839 
	C535.709473,342.079865 534.295227,342.127625 532.958130,342.830780 
	C532.103577,342.960388 531.517578,342.903564 530.834961,343.439758 
	C530.574402,343.821320 530.482849,343.982513 530.165039,344.305481 
	C529.764343,344.565338 529.589905,344.663452 529.128418,344.849335 
	C527.932617,345.833252 526.756287,346.066986 525.273560,346.047852 
z"/>
<path fill="#C8B876" opacity="1.000000" stroke="none" 
	d="
M436.438782,350.235657 
	C440.311737,349.893707 444.305206,349.900665 448.298492,349.929688 
	C450.983032,349.949188 451.943207,348.785400 451.911224,345.981537 
	C451.558502,315.044983 451.302551,284.107178 451.113190,253.169128 
	C451.095032,250.204361 450.150970,248.817093 447.082794,249.082123 
	C443.134918,249.423172 439.094543,248.378235 434.845551,249.974106 
	C434.062653,248.724213 434.664490,247.770370 435.870392,247.373352 
	C436.619751,247.126648 437.520782,247.360596 438.352966,247.342545 
	C452.281311,247.040268 452.480225,247.037781 452.564758,260.685089 
	C452.743225,289.509552 452.647491,318.335632 452.794556,347.160400 
	C452.811920,350.562775 451.902588,352.207397 448.296112,351.755463 
	C444.395538,351.266724 440.306671,352.671875 436.438782,350.235657 
z"/>
<path fill="#DACE87" opacity="1.000000" stroke="none" 
	d="
M524.659912,346.023560 
	C526.045532,345.520752 527.108093,345.207428 528.505981,344.915588 
	C524.385193,349.801270 518.082642,349.538208 512.359192,350.762543 
	C502.405914,352.891632 492.295441,351.226471 482.273376,351.764648 
	C479.654541,351.905243 477.836792,350.881409 477.601166,348.543060 
	C477.188690,344.449402 477.273987,340.293030 477.363983,336.167603 
	C477.398529,334.584259 478.742310,334.101074 480.609009,334.342285 
	C477.480011,338.712524 479.388824,343.595703 479.487701,348.234131 
	C479.515717,349.548401 480.999908,349.938507 482.193878,349.895599 
	C496.303528,349.388092 510.706390,352.193085 524.659912,346.023560 
z"/>
<path fill="#B39759" opacity="1.000000" stroke="none" 
	d="
M261.322357,307.310913 
	C268.103058,307.018463 275.182129,307.013306 282.753906,306.952789 
	C294.497070,306.982819 305.747589,307.068237 317.320251,307.332550 
	C298.968506,307.540375 280.294647,307.569275 261.322357,307.310913 
z"/>
<path fill="#DACE87" opacity="1.000000" stroke="none" 
	d="
M478.628174,249.156799 
	C478.957855,252.349258 479.249084,255.839569 479.098938,259.310822 
	C478.945435,262.859314 480.482330,263.923767 483.839661,263.885132 
	C490.641541,263.806854 497.446991,264.039459 504.602783,264.352478 
	C497.176147,264.557007 489.396667,264.479034 481.619934,264.592010 
	C479.141266,264.627991 477.790741,263.766327 477.821716,261.276031 
	C477.870880,257.328125 477.163086,253.337555 478.628174,249.156799 
z"/>
<path fill="#DACE87" opacity="1.000000" stroke="none" 
	d="
M531.429016,322.251038 
	C533.935364,322.215729 534.158630,319.502899 536.042236,319.585297 
	C536.530579,324.982605 534.745789,326.795013 528.419800,326.960602 
	C526.937073,327.305298 525.866882,327.644318 524.460083,328.016144 
	C524.340332,325.316071 526.840698,324.721191 529.154419,323.229675 
	C530.184509,322.967407 530.538635,322.761383 531.429016,322.251038 
z"/>
<path fill="#9E7A40" opacity="1.000000" stroke="none" 
	d="
M765.258850,250.477295 
	C766.437012,256.197418 766.014954,262.107971 765.724854,268.365540 
	C763.391174,262.769623 764.200623,256.708008 765.258850,250.477295 
z"/>
<path fill="#DACE87" opacity="1.000000" stroke="none" 
	d="
M507.607239,248.109253 
	C501.138214,248.348648 494.383026,248.232635 487.628784,248.271820 
	C484.984680,248.287170 482.342621,248.650711 479.275330,248.869415 
	C479.106567,247.532455 480.178131,247.630280 481.146423,247.635880 
	C489.871490,247.686325 498.596436,247.753601 507.607239,248.109253 
z"/>
<path fill="#C4B06D" opacity="1.000000" stroke="none" 
	d="
M660.375366,294.343872 
	C664.377441,294.636627 664.505798,297.888702 664.944336,300.747162 
	C665.359802,303.454742 663.656128,304.632812 660.822754,304.957153 
	C660.407776,304.542419 660.350403,304.107513 660.377075,303.351562 
	C661.304260,300.908417 661.095581,298.743530 660.590698,296.271454 
	C660.402893,295.535614 660.347961,295.100342 660.375366,294.343872 
z"/>
<path fill="#9E7A40" opacity="1.000000" stroke="none" 
	d="
M782.514404,248.709290 
	C777.769409,248.962402 772.851074,248.895569 767.584839,248.664337 
	C772.256836,246.445053 777.295227,246.918304 782.514404,248.709290 
z"/>
<path fill="#A7884C" opacity="1.000000" stroke="none" 
	d="
M706.735535,247.816345 
	C704.048950,250.380646 700.148499,247.506851 697.204224,250.431702 
	C694.166809,248.702148 695.197876,247.563324 698.069885,247.363785 
	C700.873657,247.168976 703.707642,247.407501 706.735535,247.816345 
z"/>
<path fill="#A7884C" opacity="1.000000" stroke="none" 
	d="
M333.676208,247.999069 
	C329.899109,249.680725 325.835571,248.987747 321.459595,248.586945 
	C325.136292,246.367630 329.330994,247.524399 333.676208,247.999069 
z"/>
<path fill="#9E7A40" opacity="1.000000" stroke="none" 
	d="
M764.961548,312.249695 
	C765.537109,312.890625 766.139771,313.764313 765.949402,314.400757 
	C765.258118,316.711700 768.144958,320.460815 765.556702,320.965149 
	C762.845947,321.493317 764.469543,316.996979 762.898743,314.894104 
	C763.907654,314.209015 764.142273,313.189575 764.961548,312.249695 
z"/>
<path fill="#C4B06D" opacity="1.000000" stroke="none" 
	d="
M595.914673,292.740295 
	C594.057800,288.615723 596.245544,285.399872 598.819336,282.163391 
	C597.400940,285.413605 597.455261,289.194702 595.914673,292.740295 
z"/>
<path fill="#C4B06D" opacity="1.000000" stroke="none" 
	d="
M596.782471,258.219604 
	C597.890564,258.724152 598.668335,259.303436 599.474426,259.840363 
	C600.167847,260.302277 600.992615,260.826447 600.605652,261.728729 
	C599.968994,263.213196 599.012390,262.250977 598.284180,261.754791 
	C596.952515,260.847473 595.519348,260.955902 593.675659,261.124237 
	C593.827148,259.594086 595.093933,258.877441 596.782471,258.219604 
z"/>
<path fill="#C4B06D" opacity="1.000000" stroke="none" 
	d="
M597.546814,312.672821 
	C595.118286,310.750275 595.032043,307.817902 595.255981,304.542023 
	C598.022583,306.399384 596.258789,309.791290 597.546814,312.672821 
z"/>
<path fill="#A48849" opacity="1.000000" stroke="none" 
	d="
M328.291077,306.476685 
	C327.938690,301.816772 327.921844,296.940735 327.912048,291.609283 
	C329.798248,296.112457 328.581146,301.216064 328.291077,306.476685 
z"/>
<path fill="#DACE87" opacity="1.000000" stroke="none" 
	d="
M529.591064,253.795715 
	C526.225830,254.320862 523.494385,252.244675 520.256226,250.822296 
	C523.607422,250.181091 526.369812,252.382294 529.591064,253.795715 
z"/>
<path fill="#BCA463" opacity="1.000000" stroke="none" 
	d="
M660.350647,296.402374 
	C663.037903,298.005432 662.341614,300.346863 660.776489,302.885345 
	C660.388611,300.964996 660.316040,298.899445 660.350647,296.402374 
z"/>
<path fill="#F1E89B" opacity="1.000000" stroke="none" 
	d="
M537.526733,305.242615 
	C537.947205,304.482330 538.162598,303.924622 538.559570,303.721191 
	C539.477661,303.250824 539.700928,303.937012 539.593689,304.641388 
	C539.302002,306.556732 538.929749,308.459839 538.552612,310.573975 
	C536.621704,309.717499 538.299805,308.405365 537.557190,307.352264 
	C537.386963,306.626160 537.395630,306.116119 537.526733,305.242615 
z"/>
<path fill="#DACE87" opacity="1.000000" stroke="none" 
	d="
M543.780273,264.732178 
	C541.407532,264.612793 540.131592,262.851624 538.949768,260.604492 
	C541.481873,260.519135 542.638000,262.433472 543.780273,264.732178 
z"/>
<path fill="#A7884C" opacity="1.000000" stroke="none" 
	d="
M731.106201,273.721161 
	C730.969116,272.337494 730.935791,271.672546 730.890564,270.675385 
	C732.994568,271.416779 733.694092,273.572510 734.821533,275.781128 
	C734.870972,276.123138 734.774780,276.203552 734.727051,276.244202 
	C732.824768,276.982513 731.990967,275.760712 731.106201,273.721161 
z"/>
<path fill="#7A5929" opacity="1.000000" stroke="none" 
	d="
M228.290558,264.713928 
	C228.029709,263.165192 228.103592,261.471161 228.353333,259.487610 
	C231.120132,260.942474 230.140060,262.750763 228.290558,264.713928 
z"/>
<path fill="#C4B06D" opacity="1.000000" stroke="none" 
	d="
M595.494751,301.656036 
	C592.917542,300.399597 594.601685,298.474945 595.192261,296.370544 
	C595.448303,297.823120 595.537415,299.533661 595.494751,301.656036 
z"/>
<path fill="#BCA463" opacity="1.000000" stroke="none" 
	d="
M663.452515,260.815216 
	C661.715210,260.400604 659.815918,259.876831 658.983643,257.523834 
	C661.265015,257.148132 662.157715,259.096375 663.452515,260.815216 
z"/>
<path fill="#C4B06D" opacity="1.000000" stroke="none" 
	d="
M600.165833,280.568909 
	C599.962219,278.729736 600.553284,277.116974 602.569458,276.022247 
	C602.526672,277.706635 601.781799,279.267151 600.165833,280.568909 
z"/>
<path fill="#A7884C" opacity="1.000000" stroke="none" 
	d="
M335.256592,264.548370 
	C334.989563,263.324097 335.053497,262.040558 335.280884,260.486847 
	C337.453766,261.575043 337.103241,263.012543 335.256592,264.548370 
z"/>
<path fill="#DACE87" opacity="1.000000" stroke="none" 
	d="
M531.825012,342.220215 
	C533.240112,341.618103 534.477905,341.235016 536.039062,340.834045 
	C536.326477,343.373291 533.908081,342.789520 532.269043,343.568604 
	C531.677124,343.170868 531.588623,342.825867 531.825012,342.220215 
z"/>
<path fill="#DACE87" opacity="1.000000" stroke="none" 
	d="
M534.602295,256.807373 
	C532.787170,257.130768 531.203003,256.480286 529.964417,254.610550 
	C531.716431,254.415756 533.199341,255.282745 534.602295,256.807373 
z"/>
<path fill="#A48849" opacity="1.000000" stroke="none" 
	d="
M765.343628,293.385529 
	C766.330994,293.130371 767.435486,292.986816 767.701477,294.192139 
	C767.980591,295.457275 767.066101,295.781311 765.743347,295.957275 
	C765.371704,295.237030 765.317932,294.494293 765.343628,293.385529 
z"/>
<path fill="#F4EC9C" opacity="1.000000" stroke="none" 
	d="
M531.942627,341.718262 
	C531.972717,342.328094 531.932556,342.653687 531.909790,343.222626 
	C531.760864,343.566040 531.583862,343.664795 531.114502,343.846619 
	C530.624146,344.043762 530.426147,344.157837 530.129883,343.943604 
	C530.496765,342.759583 528.951111,340.196350 531.942627,341.718262 
z"/>
<path fill="#B39759" opacity="1.000000" stroke="none" 
	d="
M583.212891,326.258362 
	C585.194885,326.554932 585.534912,328.409668 586.110657,330.437317 
	C583.552917,330.473267 584.572815,327.756165 583.212891,326.258362 
z"/>
<path fill="#A7884C" opacity="1.000000" stroke="none" 
	d="
M725.708374,262.796082 
	C723.962708,262.759155 723.099670,261.647644 722.897949,259.610809 
	C724.317505,259.904877 725.358643,260.888031 725.708374,262.796082 
z"/>
<path fill="#DACE87" opacity="1.000000" stroke="none" 
	d="
M531.865295,319.481964 
	C532.138062,320.153778 532.087097,320.769562 532.016602,321.694092 
	C531.997009,322.002899 532.000000,322.000000 532.001343,321.998077 
	C531.470215,322.601959 531.138611,323.437469 529.888855,323.528320 
	C529.581177,323.482208 529.376770,323.318359 529.274109,323.236969 
	C529.014526,321.310577 530.549194,320.540558 531.865295,319.481964 
z"/>
<path fill="#DACE87" opacity="1.000000" stroke="none" 
	d="
M530.422852,277.160583 
	C532.171021,277.194458 532.930603,278.341309 533.141357,280.260376 
	C531.772583,279.926941 530.493408,279.213959 530.422852,277.160583 
z"/>
<path fill="#A48849" opacity="1.000000" stroke="none" 
	d="
M303.516907,290.342651 
	C301.580200,291.520721 299.137726,291.068665 296.387695,290.629364 
	C298.409729,290.377319 300.749268,290.308899 303.516907,290.342651 
z"/>
<path fill="#C4B06D" opacity="1.000000" stroke="none" 
	d="
M600.750732,255.434982 
	C600.576477,257.121643 599.081848,257.427094 597.487305,258.046326 
	C597.819092,256.645203 598.923950,255.760117 600.750732,255.434982 
z"/>
<path fill="#C4B06D" opacity="1.000000" stroke="none" 
	d="
M592.795410,261.313049 
	C592.943176,262.675964 592.093872,263.475861 590.621155,264.068176 
	C590.452454,262.746582 590.635315,261.403687 592.795410,261.313049 
z"/>
<path fill="#BCA463" opacity="1.000000" stroke="none" 
	d="
M649.356689,251.873642 
	C648.107910,252.074692 646.687439,252.123199 645.344971,250.883453 
	C646.726440,249.971191 647.878662,251.193558 649.356689,251.873642 
z"/>
<path fill="#B39759" opacity="1.000000" stroke="none" 
	d="
M587.155273,332.281799 
	C588.893372,332.259247 589.704346,333.480164 590.114868,335.403931 
	C589.125610,334.696777 588.150757,333.656830 587.155273,332.281799 
z"/>
<path fill="#DACE87" opacity="1.000000" stroke="none" 
	d="
M513.315796,266.227783 
	C514.415771,265.884369 515.734863,265.622314 516.934875,266.959290 
	C515.607849,268.313416 514.772400,266.349792 513.315796,266.227783 
z"/>
<path fill="#B39759" opacity="1.000000" stroke="none" 
	d="
M579.205078,316.371521 
	C580.150818,317.008514 580.789001,318.118408 580.517822,319.707458 
	C578.365295,319.437286 579.428650,317.835938 579.205078,316.371521 
z"/>
<path fill="#A7884C" opacity="1.000000" stroke="none" 
	d="
M699.320068,254.199219 
	C700.406738,254.157333 700.932922,254.907257 701.126343,256.266479 
	C699.940125,256.423676 699.446167,255.633469 699.320068,254.199219 
z"/>
<path fill="#A7884C" opacity="1.000000" stroke="none" 
	d="
M722.743713,258.792664 
	C721.571472,258.864197 721.029297,258.098877 720.902466,256.657593 
	C722.098389,256.538757 722.558228,257.393066 722.743713,258.792664 
z"/>
<path fill="#DACE87" opacity="1.000000" stroke="none" 
	d="
M537.564575,258.824402 
	C536.499329,259.206146 535.557251,258.970551 534.937866,257.615967 
	C536.006836,257.177399 536.832458,257.718323 537.564575,258.824402 
z"/>
<path fill="#BCA463" opacity="1.000000" stroke="none" 
	d="
M658.312683,285.384216 
	C659.187439,285.700806 660.112122,286.288971 659.412415,287.733398 
	C657.868103,287.655731 658.197937,286.618073 658.312683,285.384216 
z"/>
<path fill="#8F6833" opacity="1.000000" stroke="none" 
	d="
M719.094238,282.271118 
	C720.337769,282.146179 720.900085,282.969696 721.068115,284.472595 
	C719.897705,284.521088 719.242676,283.787842 719.094238,282.271118 
z"/>
<path fill="#C7B471" opacity="1.000000" stroke="none" 
	d="
M597.382324,342.159607 
	C598.383545,341.873016 599.303101,342.042572 599.966675,343.237091 
	C598.797668,344.098694 598.076233,343.299194 597.382324,342.159607 
z"/>
<path fill="#BCA463" opacity="1.000000" stroke="none" 
	d="
M656.269653,343.592987 
	C656.230408,342.407471 657.046143,342.021973 658.364258,341.890717 
	C658.426941,343.007690 657.768677,343.649658 656.269653,343.592987 
z"/>
<path fill="#A7884C" opacity="1.000000" stroke="none" 
	d="
M717.738037,251.792801 
	C716.569092,251.861130 716.035278,251.083221 715.906677,249.639160 
	C717.088318,249.542633 717.558044,250.386154 717.738037,251.792801 
z"/>
<path fill="#A7884C" opacity="1.000000" stroke="none" 
	d="
M727.770264,265.774048 
	C726.579956,265.873352 726.033264,265.096069 725.885620,263.638489 
	C726.989075,263.594116 727.731384,264.209015 727.770264,265.774048 
z"/>
<path fill="#C7B471" opacity="1.000000" stroke="none" 
	d="
M601.711792,320.801025 
	C600.481445,320.886658 599.987610,320.058258 599.899170,318.585358 
	C601.045898,318.567627 601.631409,319.321930 601.711792,320.801025 
z"/>
<path fill="#BCA463" opacity="1.000000" stroke="none" 
	d="
M658.703003,256.800659 
	C657.837097,257.045532 656.848083,257.098206 656.080444,255.924026 
	C657.116882,255.108246 657.843811,255.876663 658.703003,256.800659 
z"/>
<path fill="#A7884C" opacity="1.000000" stroke="none" 
	d="
M729.752197,268.767822 
	C728.533020,268.851837 728.020569,268.033325 727.917908,266.544708 
	C729.014587,266.557495 729.532593,267.379852 729.752197,268.767822 
z"/>
<path fill="#A48849" opacity="1.000000" stroke="none" 
	d="
M335.627258,337.630188 
	C335.291412,336.981354 335.079529,336.001984 334.876892,334.714783 
	C336.612122,334.941284 335.554565,336.308014 335.627258,337.630188 
z"/>
<path fill="#C4B06D" opacity="1.000000" stroke="none" 
	d="
M604.806030,253.292328 
	C604.846436,254.501556 603.968384,254.978394 602.458130,255.059143 
	C602.923279,254.483093 603.714539,253.914276 604.806030,253.292328 
z"/>
<path fill="#DACE87" opacity="1.000000" stroke="none" 
	d="
M513.480774,248.898560 
	C512.704041,249.080017 511.697235,249.051422 510.422546,248.880722 
	C511.186676,248.721909 512.218689,248.705185 513.480774,248.898560 
z"/>
<path fill="#DACE87" opacity="1.000000" stroke="none" 
	d="
M524.288208,271.213928 
	C524.832947,271.233795 525.412109,271.573242 526.072510,272.164307 
	C525.237305,272.757080 524.464600,272.799713 524.288208,271.213928 
z"/>
<path fill="#BCA463" opacity="1.000000" stroke="none" 
	d="
M662.215210,339.276581 
	C662.354370,338.803040 662.732727,338.391632 663.327576,337.929749 
	C663.717651,338.766510 662.899475,338.913300 662.215210,339.276581 
z"/>
<path fill="#A48849" opacity="1.000000" stroke="none" 
	d="
M311.600098,290.334106 
	C311.202118,291.088409 310.366302,291.113586 309.271118,290.613068 
	C309.789032,290.376740 310.517365,290.301453 311.600098,290.334106 
z"/>
<path fill="#DACE87" opacity="1.000000" stroke="none" 
	d="
M502.632874,334.231964 
	C502.250977,335.117279 501.374420,335.122162 500.228485,334.555847 
	C500.769318,334.289459 501.517487,334.212463 502.632874,334.231964 
z"/>
<path fill="#9E7A40" opacity="1.000000" stroke="none" 
	d="
M765.248474,347.284607 
	C765.767334,347.452820 766.270813,347.942352 766.892212,348.670349 
	C766.185181,348.791840 765.207581,348.882904 765.248474,347.284607 
z"/>
<path fill="#9E7A40" opacity="1.000000" stroke="none" 
	d="
M640.783203,332.200562 
	C640.612793,332.524567 640.145325,332.802185 639.396179,333.067322 
	C639.571716,332.754608 640.028992,332.454407 640.783203,332.200562 
z"/>
<path fill="#BCA463" opacity="1.000000" stroke="none" 
	d="
M653.522949,253.876099 
	C653.173950,253.984573 652.746094,253.854492 652.148315,253.576019 
	C652.466919,253.497589 652.955505,253.567551 653.522949,253.876099 
z"/>
<path fill="#BCA463" opacity="1.000000" stroke="none" 
	d="
M657.840454,315.351746 
	C657.964539,315.749908 657.817383,316.217743 657.498169,316.864075 
	C657.407227,316.502197 657.488281,315.961823 657.840454,315.351746 
z"/>
<path fill="#9E7A40" opacity="1.000000" stroke="none" 
	d="
M638.725830,333.093994 
	C638.548828,333.394104 638.072693,333.675842 637.308594,333.957703 
	C637.489319,333.663727 637.958008,333.369690 638.725830,333.093994 
z"/>
<path fill="#9E7A40" opacity="1.000000" stroke="none" 
	d="
M757.797668,334.991486 
	C758.045532,335.388031 758.058594,335.771667 758.083191,336.442719 
	C757.788391,336.329010 757.482056,335.927856 757.134094,335.250427 
	C757.092529,334.974121 757.562866,334.978546 757.797668,334.991486 
z"/>
<path fill="#9E7A40" opacity="1.000000" stroke="none" 
	d="
M755.583191,303.752838 
	C755.227600,304.038696 754.885315,304.045410 754.286865,304.052887 
	C754.030579,304.053680 753.988037,303.570984 753.984131,303.328857 
	C754.518982,303.215729 755.057739,303.344727 755.583191,303.752838 
z"/>
<path fill="#A48849" opacity="1.000000" stroke="none" 
	d="
M319.645264,290.361176 
	C319.429291,290.560730 318.901886,290.655426 318.212891,290.603455 
	C318.478851,290.389984 318.906342,290.323151 319.645264,290.361176 
z"/>
<path fill="#B39759" opacity="1.000000" stroke="none" 
	d="
M581.194824,322.244812 
	C581.519775,322.395081 581.808838,322.851196 582.084961,323.592346 
	C581.297058,323.759064 581.174927,323.191376 581.194824,322.244812 
z"/>
<path fill="#B39759" opacity="1.000000" stroke="none" 
	d="
M582.135498,324.252869 
	C582.458862,324.390808 582.780273,324.835327 583.093567,325.569946 
	C582.312988,325.759705 582.179016,325.191956 582.135498,324.252869 
z"/>
<path fill="#DACE87" opacity="1.000000" stroke="none" 
	d="
M517.789673,249.800751 
	C517.467163,250.017944 517.001953,250.011520 516.339844,249.876740 
	C516.644287,249.691299 517.145691,249.634216 517.789673,249.800751 
z"/>
<path fill="#9E7A40" opacity="1.000000" stroke="none" 
	d="
M646.739868,329.121307 
	C646.614258,329.453186 646.179565,329.776276 645.459961,330.095734 
	C645.220703,329.287476 645.789185,329.153137 646.739868,329.121307 
z"/>
<path fill="#9E7A40" opacity="1.000000" stroke="none" 
	d="
M641.828552,331.457672 
	C642.008423,331.795837 641.870178,331.980896 641.444580,332.101013 
	C641.163696,331.766876 641.281433,331.523041 641.828552,331.457672 
z"/>
<path fill="#9E7A40" opacity="1.000000" stroke="none" 
	d="
M643.828674,330.444519 
	C644.027222,330.774567 643.901489,330.961914 643.484680,331.089264 
	C643.181519,330.765350 643.285156,330.522858 643.828674,330.444519 
z"/>
<path fill="#C8B876" opacity="1.000000" stroke="none" 
	d="
M434.470032,348.220520 
	C434.814850,347.981476 434.970947,348.052368 435.069183,348.388306 
	C435.068634,348.526917 434.660858,348.719635 434.660858,348.719635 
	C434.660858,348.719635 434.338684,348.404022 434.470032,348.220520 
z"/>
<path fill="#9E7A40" opacity="1.000000" stroke="none" 
	d="
M647.799316,328.163269 
	C648.015259,328.468414 647.854980,328.727600 647.346558,328.982513 
	C647.264709,328.768463 647.406311,328.481476 647.799316,328.163269 
z"/>
<path fill="#A7884C" opacity="1.000000" stroke="none" 
	d="
M335.957153,250.506134 
	C335.867096,250.420898 335.911652,250.480301 335.886597,250.507507 
	C335.861511,250.534714 336.168732,250.455460 336.168732,250.455460 
	C336.168732,250.455460 336.047180,250.591370 335.957153,250.506134 
z"/>
<path fill="#BCA463" opacity="1.000000" stroke="none" 
	d="
M667.129517,334.611572 
	C667.034485,334.382782 667.150146,334.262543 667.399536,334.106537 
	C667.512512,334.050720 667.651123,334.445435 667.651123,334.445435 
	C667.651123,334.445435 667.319336,334.700043 667.129517,334.611572 
z"/>
<path fill="#BCA463" opacity="1.000000" stroke="none" 
	d="
M666.153442,335.599457 
	C666.030579,335.402344 666.130798,335.262817 666.343140,335.048126 
	C666.434631,334.958191 666.623840,335.326538 666.623840,335.326538 
	C666.623840,335.326538 666.356079,335.642303 666.153442,335.599457 
z"/>
<path fill="#B39759" opacity="1.000000" stroke="none" 
	d="
M592.280457,338.125702 
	C592.595276,337.841553 592.819824,337.942841 593.026062,338.378815 
	C593.073547,338.567352 592.608765,338.692352 592.608765,338.692352 
	C592.608765,338.692352 592.256042,338.364929 592.280457,338.125702 
z"/>
<path fill="#DACE87" opacity="1.000000" stroke="none" 
	d="
M538.136780,339.487427 
	C538.000122,339.166626 538.131165,339.014526 538.499023,338.918701 
	C538.764465,339.239075 538.653992,339.466156 538.136780,339.487427 
z"/>
<path fill="#9E7A40" opacity="1.000000" stroke="none" 
	d="
M759.489624,339.240753 
	C759.688354,339.163910 759.814270,339.284485 759.984619,339.541992 
	C760.052795,339.654053 759.693970,339.667664 759.693970,339.667664 
	C759.693970,339.667664 759.440613,339.413361 759.489624,339.240753 
z"/>
<path fill="#C7B471" opacity="1.000000" stroke="none" 
	d="
M594.379028,340.227936 
	C594.650391,340.039917 594.793213,340.117065 594.928650,340.391541 
	C594.962219,340.512848 594.592529,340.704559 594.592529,340.704559 
	C594.592529,340.704559 594.291565,340.417084 594.379028,340.227936 
z"/>
<path fill="#BCA463" opacity="1.000000" stroke="none" 
	d="
M660.153198,340.707184 
	C660.048767,340.477875 660.220825,340.279541 660.626770,340.043030 
	C660.814758,340.291565 660.671082,340.535980 660.153198,340.707184 
z"/>
<path fill="#C7B471" opacity="1.000000" stroke="none" 
	d="
M596.263428,341.168945 
	C596.485229,340.980988 596.696228,341.088531 596.977600,341.409180 
	C597.082520,341.554504 596.643494,341.683685 596.643494,341.683685 
	C596.643494,341.683685 596.287109,341.396698 596.263428,341.168945 
z"/>
<path fill="#BCA463" opacity="1.000000" stroke="none" 
	d="
M659.145752,341.638794 
	C659.055847,341.415405 659.216553,341.244446 659.566101,341.019531 
	C659.790344,341.268860 659.670837,341.510742 659.145752,341.638794 
z"/>
<path fill="#9E7A40" opacity="1.000000" stroke="none" 
	d="
M761.415405,342.260620 
	C761.633606,342.158539 761.779907,342.282043 761.979248,342.557678 
	C762.060242,342.676666 761.666870,342.715332 761.666870,342.715332 
	C761.666870,342.715332 761.371399,342.453094 761.415405,342.260620 
z"/>
<path fill="#9E7A40" opacity="1.000000" stroke="none" 
	d="
M762.369690,343.140167 
	C762.558167,343.068848 762.719360,343.223328 762.953186,343.538818 
	C762.732056,343.744446 762.504211,343.633148 762.369690,343.140167 
z"/>
<path fill="#DACE87" opacity="1.000000" stroke="none" 
	d="
M529.977783,343.824890 
	C530.031616,343.615234 530.432678,343.757812 530.627380,343.843750 
	C530.852112,344.285370 530.697998,344.520111 530.149170,344.550537 
	C529.938782,344.467194 529.923889,344.034515 529.977783,343.824890 
z"/>
<path fill="#9E7A40" opacity="1.000000" stroke="none" 
	d="
M763.355347,345.270935 
	C763.605408,345.150848 763.758362,345.275818 763.937500,345.581299 
	C764.002014,345.714996 763.591309,345.758209 763.591309,345.758209 
	C763.591309,345.758209 763.296448,345.469177 763.355347,345.270935 
z"/>
<path fill="#DACE87" opacity="1.000000" stroke="none" 
	d="
M523.207886,270.175110 
	C523.447327,269.969360 523.699890,270.094635 523.988525,270.527191 
	C523.735596,270.800873 523.467712,270.691437 523.207886,270.175110 
z"/>
<path fill="#BCA463" opacity="1.000000" stroke="none" 
	d="
M655.344910,280.274628 
	C655.626892,280.129944 655.782104,280.247467 655.956909,280.554840 
	C656.019409,280.688202 655.585510,280.783295 655.585510,280.783295 
	C655.585510,280.783295 655.260925,280.480377 655.344910,280.274628 
z"/>
<path fill="#A7884C" opacity="1.000000" stroke="none" 
	d="
M702.261047,258.163818 
	C702.486755,258.063446 702.699463,258.249329 702.940552,258.696228 
	C702.705627,258.836426 702.465271,258.667389 702.261047,258.163818 
z"/>
<path fill="#A48849" opacity="1.000000" stroke="none" 
	d="
M327.792297,290.855560 
	C327.593903,291.036469 327.389648,290.941437 327.119202,290.640320 
	C327.320709,290.277985 327.565216,290.326447 327.792297,290.855560 
z"/>
<path fill="#A48849" opacity="1.000000" stroke="none" 
	d="
M285.741943,290.370728 
	C285.982971,290.441284 285.645386,290.724854 285.645386,290.724854 
	C285.645386,290.724854 285.210876,290.678467 285.114929,290.559967 
	C285.179626,290.394348 285.340271,290.347229 285.741943,290.370728 
z"/>
<path fill="#9E7A40" opacity="1.000000" stroke="none" 
	d="
M783.273926,282.628479 
	C783.188782,282.757812 783.142029,282.374634 783.158569,282.312378 
	C783.175049,282.250122 783.359009,282.499176 783.273926,282.628479 
z"/>
<path fill="#8F6833" opacity="1.000000" stroke="none" 
	d="
M718.298828,281.181488 
	C718.615906,281.047516 718.818298,281.236603 718.996826,281.711426 
	C718.672363,281.933258 718.409363,281.769043 718.298828,281.181488 
z"/>
<path fill="#C4B06D" opacity="1.000000" stroke="none" 
	d="
M599.362671,282.035034 
	C599.032227,281.844177 599.064941,281.542328 599.406494,281.090698 
	C599.574585,281.252991 599.578064,281.580688 599.362671,282.035034 
z"/>
<path fill="#DACE87" opacity="1.000000" stroke="none" 
	d="
M533.386353,281.134644 
	C533.697937,281.021271 533.877197,281.206238 534.010376,281.662842 
	C533.700500,281.840790 533.463806,281.673615 533.386353,281.134644 
z"/>
<path fill="#A7884C" opacity="1.000000" stroke="none" 
	d="
M701.454590,257.142822 
	C701.668640,257.087494 701.812805,257.259216 701.991821,257.612976 
	C701.745728,257.775909 701.531677,257.634186 701.454590,257.142822 
z"/>
<path fill="#8F6833" opacity="1.000000" stroke="none" 
	d="
M715.341064,277.197083 
	C715.648682,277.055389 715.838623,277.221344 715.999756,277.658142 
	C715.687317,277.892761 715.438171,277.751343 715.341064,277.197083 
z"/>
<path fill="#DACE87" opacity="1.000000" stroke="none" 
	d="
M529.548767,276.121307 
	C529.676208,275.956177 530.060059,276.204926 530.068481,276.324158 
	C530.076904,276.443390 529.691895,276.603973 529.691895,276.603973 
	C529.691895,276.603973 529.421326,276.286438 529.548767,276.121307 
z"/>
<path fill="#C4B06D" opacity="1.000000" stroke="none" 
	d="
M603.175171,275.811554 
	C602.988159,275.572052 603.126221,275.319275 603.560913,275.023499 
	C603.822021,275.278717 603.702881,275.551331 603.175171,275.811554 
z"/>
<path fill="#DACE87" opacity="1.000000" stroke="none" 
	d="
M528.563232,275.154480 
	C528.708679,275.006989 529.021973,275.121368 529.017944,275.212280 
	C529.013855,275.303192 528.715210,275.590057 528.715210,275.590057 
	C528.715210,275.590057 528.417847,275.301941 528.563232,275.154480 
z"/>
<path fill="#C4B06D" opacity="1.000000" stroke="none" 
	d="
M589.892456,264.333344 
	C590.063232,264.577515 589.957336,264.750885 589.629517,264.930786 
	C589.296692,264.679443 589.366028,264.454529 589.892456,264.333344 
z"/>
<path fill="#A7884C" opacity="1.000000" stroke="none" 
	d="
M333.244537,265.072754 
	C333.234741,264.913300 333.500397,264.838043 333.633118,264.875031 
	C333.765839,264.912018 333.624664,265.331421 333.624664,265.331421 
	C333.624664,265.331421 333.254333,265.232208 333.244537,265.072754 
z"/>
<path fill="#DACE87" opacity="1.000000" stroke="none" 
	d="
M520.653015,269.056702 
	C520.781616,268.974182 520.780029,269.029907 520.784119,269.013672 
	C520.788208,268.997406 520.778870,269.299835 520.778870,269.299835 
	C520.778870,269.299835 520.524414,269.139221 520.653015,269.056702 
z"/>
<path fill="#DACE87" opacity="1.000000" stroke="none" 
	d="
M533.864014,316.283508 
	C534.108032,316.498322 534.047607,316.682648 533.754883,316.898376 
	C533.618408,316.961121 533.393250,316.609558 533.393250,316.609558 
	C533.393250,316.609558 533.655151,316.284363 533.864014,316.283508 
z"/>
<path fill="#A7884C" opacity="1.000000" stroke="none" 
	d="
M697.666138,252.240326 
	C697.788269,252.135300 697.982422,252.317520 698.019897,252.372345 
	C698.057434,252.427185 697.770325,252.574982 697.770325,252.574982 
	C697.770325,252.574982 697.544006,252.345367 697.666138,252.240326 
z"/>
<path fill="#9E7A40" opacity="1.000000" stroke="none" 
	d="
M650.866089,325.262085 
	C651.073303,325.595062 650.912231,325.826782 650.422607,326.030579 
	C650.345520,325.803253 650.480103,325.522644 650.866089,325.262085 
z"/>
<path fill="#9E7A40" opacity="1.000000" stroke="none" 
	d="
M651.784668,324.354980 
	C652.003906,324.669952 651.883972,324.878601 651.471680,325.068604 
	C651.135559,324.765747 651.224304,324.498657 651.784668,324.354980 
z"/>
<path fill="#A7884C" opacity="1.000000" stroke="none" 
	d="
M718.567322,252.765015 
	C718.329773,252.869507 718.177124,252.733902 717.994141,252.416565 
	C718.233398,252.187943 718.462891,252.284653 718.567322,252.765015 
z"/>
<path fill="#C7B471" opacity="1.000000" stroke="none" 
	d="
M602.555420,321.773163 
	C602.272095,321.912140 602.115723,321.787811 601.962280,321.452637 
	C602.234619,321.175629 602.473694,321.264984 602.555420,321.773163 
z"/>
<path fill="#BCA463" opacity="1.000000" stroke="none" 
	d="
M654.888550,320.588379 
	C654.991821,320.707123 654.913452,320.774780 654.895752,320.790283 
	C654.878052,320.805756 654.583496,320.706696 654.583496,320.706696 
	C654.583496,320.706696 654.785278,320.469604 654.888550,320.588379 
z"/>
<path fill="#DACE87" opacity="1.000000" stroke="none" 
	d="
M532.828735,318.222778 
	C533.058594,318.416779 532.986206,318.643646 532.692566,318.958527 
	C532.551331,319.072052 532.348816,318.660522 532.348816,318.660522 
	C532.348816,318.660522 532.606689,318.281158 532.828735,318.222778 
z"/>
<path fill="#BCA463" opacity="1.000000" stroke="none" 
	d="
M656.886292,317.321320 
	C657.075745,317.336060 656.812134,317.755432 656.715454,317.831970 
	C656.618713,317.908508 656.432495,317.578308 656.432495,317.578308 
	C656.432495,317.578308 656.696838,317.306580 656.886292,317.321320 
z"/>
<path fill="#9E7A40" opacity="1.000000" stroke="none" 
	d="
M648.796997,327.172760 
	C649.011658,327.478271 648.853821,327.732788 648.353027,327.980316 
	C648.271179,327.765747 648.409363,327.481903 648.796997,327.172760 
z"/>
<path fill="#9E7A40" opacity="1.000000" stroke="none" 
	d="
M762.617676,313.840576 
	C762.416382,313.919952 762.271912,313.780334 762.054688,313.502502 
	C762.283203,313.234711 762.514038,313.320496 762.617676,313.840576 
z"/>
<path fill="#A7884C" opacity="1.000000" stroke="none" 
	d="
M698.482544,253.140198 
	C698.690735,253.077713 698.821594,253.223282 698.995178,253.521545 
	C698.755188,253.729477 698.544312,253.620819 698.482544,253.140198 
z"/>
<path fill="#9E7A40" opacity="1.000000" stroke="none" 
	d="
M760.524597,310.719910 
	C760.476013,310.871979 760.139465,310.656982 760.083740,310.574432 
	C760.028015,310.491882 760.322815,310.371368 760.322815,310.371368 
	C760.322815,310.371368 760.573181,310.567871 760.524597,310.719910 
z"/>
<path fill="#9E7A40" opacity="1.000000" stroke="none" 
	d="
M759.486938,309.840179 
	C759.427063,310.007629 759.108276,309.627197 759.033813,309.528381 
	C759.236450,309.314850 759.432251,309.395905 759.486938,309.840179 
z"/>
<path fill="#9E7A40" opacity="1.000000" stroke="none" 
	d="
M758.665527,308.821716 
	C758.454285,308.899719 758.286560,308.734619 758.064575,308.382782 
	C758.303955,308.187561 758.536865,308.315094 758.665527,308.821716 
z"/>
<path fill="#A7884C" opacity="1.000000" stroke="none" 
	d="
M719.755981,254.817139 
	C719.515259,254.932465 719.303406,254.754074 719.057983,254.320877 
	C719.312744,254.134918 719.566223,254.287369 719.755981,254.817139 
z"/>
<path fill="#9E7A40" opacity="1.000000" stroke="none" 
	d="
M757.654175,306.731812 
	C757.406677,306.855499 757.250549,306.731140 757.065796,306.424377 
	C757.311279,306.147797 757.547424,306.228394 757.654175,306.731812 
z"/>
<path fill="#C7B471" opacity="1.000000" stroke="none" 
	d="
M370.116760,256.684723 
	C368.995972,250.003235 369.093445,250.718033 375.770660,249.807388 
	C382.585602,248.877945 385.828064,252.990082 388.093872,257.471069 
	C392.091095,265.376343 398.010620,271.916565 402.389221,279.508514 
	C403.604858,281.616272 404.002716,283.108490 401.802155,284.479645 
	C400.051239,285.570618 399.534332,287.354065 399.194183,289.105103 
	C398.465515,292.856354 396.495178,291.705841 395.457642,289.770599 
	C391.998901,283.319366 386.870880,278.076965 383.044678,271.890076 
	C379.711243,266.500061 375.815643,261.441071 370.772644,257.015808 
	C370.458069,256.912231 370.141144,256.844879 370.116760,256.684723 
z"/>
<path fill="#C7B471" opacity="1.000000" stroke="none" 
	d="
M406.363037,289.201538 
	C403.912933,289.733307 403.879242,288.447327 404.438049,287.068420 
	C404.871796,285.998138 406.069244,285.855255 406.912598,286.390411 
	C408.288666,287.263580 407.753845,288.246307 406.363037,289.201538 
z"/>
<path fill="#F1E89B" opacity="1.000000" stroke="none" 
	d="
M548.448486,272.528442 
	C548.431824,272.494812 548.465088,272.562042 548.448486,272.528442 
z"/>
<path fill="#DACE87" opacity="1.000000" stroke="none" 
	d="
M531.424438,273.192749 
	C530.375488,273.414612 530.215942,272.875763 530.366394,272.208649 
	C530.415161,271.992462 530.774475,271.669617 530.957764,271.690796 
	C531.785461,271.786285 531.782715,272.378998 531.424438,273.192749 
z"/>
<path fill="#C4B06D" opacity="1.000000" stroke="none" 
	d="
M661.496948,307.476349 
	C661.528809,307.460724 661.465149,307.491974 661.496948,307.476349 
z"/>
<path fill="#9C7034" opacity="1.000000" stroke="none" 
	d="
M179.703827,249.108551 
	C185.079941,250.997757 190.228729,249.651199 195.284592,249.963165 
	C199.876312,250.246460 200.878403,251.398376 199.533005,255.736771 
	C199.012253,257.415955 197.829803,258.824982 199.121124,260.814606 
	C200.784561,263.377502 198.938766,263.956665 196.801956,263.980774 
	C193.164948,264.021820 189.527267,264.002716 185.417053,264.009949 
	C175.907532,264.092712 173.692276,262.098145 173.927490,254.473785 
	C174.039993,250.827103 175.496048,248.880356 179.703827,249.108551 
z"/>
<path fill="#A7884C" opacity="1.000000" stroke="none" 
	d="
M731.000000,277.999390 
	C728.568237,277.452667 726.098938,276.980408 725.107544,274.187317 
	C724.733765,273.134247 723.802612,272.081635 724.860596,271.003693 
	C726.253418,269.584534 727.172974,270.943848 728.207764,271.688232 
	C728.864197,272.160400 729.610901,272.506958 730.659790,272.956116 
	C731.002441,273.002441 731.000000,273.000000 730.998779,272.998230 
	C731.833740,274.338593 732.278320,275.730103 731.268555,277.636261 
	C731.000000,278.001221 731.000000,278.000000 731.000000,277.999390 
z"/>
<path fill="#B39759" opacity="1.000000" stroke="none" 
	d="
M731.314453,278.045593 
	C730.996826,276.611084 730.993713,275.220947 730.994080,273.413635 
	C732.045044,273.993866 733.092590,274.991241 734.409668,276.136749 
	C735.784790,280.472992 733.445312,278.839600 731.314453,278.045593 
z"/>
<path fill="#B39759" opacity="1.000000" stroke="none" 
	d="
M725.727112,291.236145 
	C725.777710,291.194061 725.888245,291.171967 725.901367,291.265564 
	C725.803894,291.381317 725.787048,291.256104 725.727112,291.236145 
z"/>
<path fill="#B39759" opacity="1.000000" stroke="none" 
	d="
M283.424927,306.007935 
	C281.628143,305.986694 280.292511,306.054077 278.979919,305.910767 
	C277.804230,305.782410 276.889313,304.830139 277.950836,303.956421 
	C281.108551,301.357391 279.166992,298.960449 277.968475,296.509735 
	C277.030945,294.592590 275.996033,292.737244 279.591370,292.005493 
	C283.095551,291.993225 286.265320,292.294128 289.356049,291.927795 
	C293.420227,291.446045 296.274200,292.881989 298.624359,296.073608 
	C300.064972,298.030029 302.833221,299.873596 301.388733,302.352570 
	C300.064331,304.625458 297.319672,306.026703 294.289734,305.999847 
	C290.825470,305.969177 287.360687,306.000519 283.424927,306.007935 
z"/>
<path fill="#DAC981" opacity="1.000000" stroke="none" 
	d="
M609.470215,330.490845 
	C609.507385,330.473389 609.433105,330.508270 609.470215,330.490845 
z"/>
<path fill="#DACE87" opacity="1.000000" stroke="none" 
	d="
M531.439697,335.607788 
	C531.101135,332.796204 532.451111,331.990143 534.638733,332.232361 
	C535.690125,332.348724 536.674072,332.986633 536.487793,334.128693 
	C536.199402,335.897064 535.708313,337.940552 533.834412,338.517761 
	C531.980103,339.088898 532.157410,336.982880 531.439697,335.607788 
z"/>
<path fill="#F1E89B" opacity="1.000000" stroke="none" 
	d="
M529.540771,323.762726 
	C530.213562,323.065918 530.845947,322.649597 531.740479,322.114716 
	C531.782104,323.428558 532.346130,325.819946 529.540771,323.762726 
z"/>
</svg>